<svg width="66" height="60" viewBox="0 0 66 60" fill="none" xmlns="http://www.w3.org/2000/svg">
<path d="M6 60C4.35 60 2.9375 59.4125 1.7625 58.2375C0.5875 57.0625 0 55.65 0 54V18C0 16.35 0.5875 14.9375 1.7625 13.7625C2.9375 12.5875 4.35 12 6 12H15.45L21 6H39V12H23.625L18.15 18H6V54H54V27H60V54C60 55.65 59.4125 57.0625 58.2375 58.2375C57.0625 59.4125 55.65 60 54 60H6ZM54 18V12H48V6H54V0H60V6H66V12H60V18H54ZM30 49.5C33.75 49.5 36.9375 48.1875 39.5625 45.5625C42.1875 42.9375 43.5 39.75 43.5 36C43.5 32.25 42.1875 29.0625 39.5625 26.4375C36.9375 23.8125 33.75 22.5 30 22.5C26.25 22.5 23.0625 23.8125 20.4375 26.4375C17.8125 29.0625 16.5 32.25 16.5 36C16.5 39.75 17.8125 42.9375 20.4375 45.5625C23.0625 48.1875 26.25 49.5 30 49.5ZM30 43.5C27.9 43.5 26.125 42.775 24.675 41.325C23.225 39.875 22.5 38.1 22.5 36C22.5 33.9 23.225 32.125 24.675 30.675C26.125 29.225 27.9 28.5 30 28.5C32.1 28.5 33.875 29.225 35.325 30.675C36.775 32.125 37.5 33.9 37.5 36C37.5 38.1 36.775 39.875 35.325 41.325C33.875 42.775 32.1 43.5 30 43.5Z" fill="#1832C8"/>
</svg>
