<svg width="33" height="33" viewBox="0 0 33 33" fill="none" xmlns="http://www.w3.org/2000/svg">
<path fill-rule="evenodd" clip-rule="evenodd" d="M15.8928 1.58152C16.3209 1.13984 16.9013 0.891745 17.5064 0.891745C18.1115 0.891745 18.6919 1.13984 19.12 1.58152L32.0595 14.9468C32.4871 15.389 32.7273 15.9885 32.7273 16.6135C32.7273 17.2385 32.4871 17.838 32.0595 18.2802L19.12 31.6454C18.6871 32.062 18.1146 32.2889 17.5231 32.2781C16.9315 32.2673 16.3671 32.0198 15.9487 31.5876C15.5303 31.1555 15.2907 30.5725 15.2803 29.9615C15.2698 29.3504 15.4894 28.7591 15.8927 28.312L24.9352 18.972L2.28346 18.972C1.67785 18.972 1.09705 18.7235 0.668821 18.2812C0.240594 17.8389 1.65155e-05 17.239 1.65678e-05 16.6135C1.662e-05 15.9879 0.240594 15.388 0.668821 14.9457C1.09705 14.5034 1.67785 14.2549 2.28346 14.2549L24.9352 14.2549L15.8928 4.91496C15.4651 4.47273 15.225 3.87326 15.225 3.24824C15.225 2.62322 15.4651 2.02375 15.8928 1.58152Z" fill="#1832C8"/>
</svg>
